<svg width="30" height="30" viewBox="0 0 30 30" fill="none" xmlns="http://www.w3.org/2000/svg">
<rect width="30" height="30" rx="15" fill="black"/>
<path d="M15.6667 14.3334L13.1667 16.8334M20.9067 8.52585C20.9857 8.49857 21.0709 8.49407 21.1524 8.51289C21.2339 8.53171 21.3085 8.57308 21.3676 8.63228C21.4267 8.69147 21.4679 8.7661 21.4866 8.84763C21.5053 8.92917 21.5007 9.01432 21.4733 9.09335L16.5367 23.2017C16.5071 23.286 16.4529 23.3595 16.3811 23.4127C16.3092 23.4658 16.2231 23.4962 16.1338 23.4998C16.0445 23.5034 15.9562 23.48 15.8803 23.4328C15.8045 23.3856 15.7445 23.3167 15.7083 23.235L13.0258 17.2C12.9807 17.0997 12.9003 17.0193 12.8 16.9742L6.76499 14.2909C6.68357 14.2545 6.61492 14.1946 6.56791 14.1188C6.5209 14.043 6.49769 13.9549 6.50128 13.8658C6.50487 13.7767 6.53509 13.6907 6.58804 13.619C6.64099 13.5473 6.71424 13.493 6.79832 13.4634L20.9067 8.52585Z" stroke="white" stroke-width="1.5" stroke-linecap="round" stroke-linejoin="round"/>
</svg>
